<svg width="26" height="26" viewBox="0 0 26 26" fill="none" xmlns="http://www.w3.org/2000/svg">
<g clip-path="url(#clip0)">
<path d="M8.03254 14.5502H10.6614V24.2723C10.6614 24.7045 11.0112 25.0553 11.4444 25.0553L15.6279 25.0563C16.0612 25.0563 16.4109 24.7045 16.4109 24.2733V14.5513H18.903C19.2977 14.5513 19.6307 14.2568 19.6798 13.8653L20.1997 9.68919C20.2582 9.22355 19.8938 8.80907 19.4229 8.80907H16.4109C16.5289 6.22926 15.9568 5.46607 17.6345 5.46607C18.7704 5.33035 20.562 5.90561 20.562 4.68305V0.948539C20.562 0.557026 20.2728 0.226067 19.8855 0.172821C19.5576 0.127928 18.262 -0.000488281 16.6552 -0.000488281C9.33654 -0.000488281 10.8431 8.11374 10.6625 8.80803H8.03254C7.60031 8.80803 7.24951 9.15882 7.24951 9.59105V13.7672C7.24951 14.1994 7.60031 14.5502 8.03254 14.5502ZM8.81556 10.3751H11.4444C11.8767 10.3751 12.2275 10.0243 12.2275 9.5921V6.30235C12.2275 3.2924 13.8405 1.56661 16.6542 1.56661C17.5708 1.56661 18.4144 1.6115 18.9949 1.65744V3.90107C18.5752 4.11509 14.8438 2.97814 14.8438 6.71683V9.59314C14.8438 10.0254 15.1946 10.3762 15.6268 10.3762H18.5355L18.2098 12.9863H15.6268C15.1946 12.9863 14.8438 13.337 14.8438 13.7693V23.4903H12.2285V13.7682C12.2285 13.336 11.8777 12.9852 11.4455 12.9852H8.81556V10.3751Z" fill="#FC165C"/>
</g>
<defs>
<clipPath id="clip0">
<rect width="25.0568" height="25.0568" fill="white" transform="translate(0.92041 -0.000488281)"/>
</clipPath>
</defs>
</svg>
