<svg width="26" height="26" viewBox="0 0 26 26" fill="none" xmlns="http://www.w3.org/2000/svg">
<g clip-path="url(#clip0)">
<path d="M5.28875 25.0563H20.4272C23.1616 25.0563 25.3864 22.8315 25.3864 20.0972V4.95867C25.3864 2.22435 23.1616 -0.000488281 20.4272 -0.000488281H5.28875C2.55443 -0.000488281 0.32959 2.22435 0.32959 4.95867V20.0972C0.32959 22.8315 2.55443 25.0563 5.28875 25.0563ZM1.89564 4.95867C1.89564 3.08776 3.41784 1.56556 5.28875 1.56556H20.4272C22.2982 1.56556 23.8204 3.08776 23.8204 4.95867V20.0972C23.8204 21.9681 22.2982 23.4903 20.4272 23.4903H5.28875C3.41784 23.4903 1.89564 21.9681 1.89564 20.0972V4.95867Z" fill="#FC165C"/>
<path d="M12.8579 18.9278C16.3868 18.9278 19.2579 16.0567 19.2579 12.5279C19.2579 8.99902 16.3868 6.12793 12.8579 6.12793C9.3291 6.12793 6.45801 8.99902 6.45801 12.5279C6.45801 16.0567 9.3291 18.9278 12.8579 18.9278ZM12.8579 7.69398C15.5234 7.69398 17.6918 9.86244 17.6918 12.5279C17.6918 15.1933 15.5234 17.3617 12.8579 17.3617C10.1925 17.3617 8.02406 15.1933 8.02406 12.5279C8.02406 9.86244 10.1925 7.69398 12.8579 7.69398Z" fill="#FC165C"/>
<path d="M19.496 7.68536C20.5254 7.68536 21.3011 6.91278 21.3011 5.88858C21.3011 4.82053 20.4847 4.0918 19.497 4.0918C18.4676 4.0918 17.6919 4.86438 17.6919 5.88858C17.6919 6.95454 18.5042 7.68536 19.496 7.68536ZM19.6808 5.71631C20.0107 6.0076 19.2579 6.36153 19.2579 5.88962C19.2579 5.60773 19.6411 5.68082 19.6808 5.71631Z" fill="#FC165C"/>
</g>
<defs>
<clipPath id="clip0">
<rect width="25.0568" height="25.0568" fill="white" transform="translate(0.32959 -0.000488281)"/>
</clipPath>
</defs>
</svg>
