<svg width="156" height="57" viewBox="0 0 156 57" fill="none" xmlns="http://www.w3.org/2000/svg">
<path d="M40.9504 42.326C38.3575 50.373 32.9034 54.0389 23.6046 54.0389H20.654C17.7929 54.0389 16.5411 52.4295 16.5411 48.9424V28.7355H23.8728C31.0257 28.7355 34.781 31.7755 34.781 36.6037C34.781 36.8719 35.8539 36.8719 35.8539 36.6037C35.8539 33.2061 35.5857 30.5237 35.5857 27.4837C35.5857 25.0696 35.6751 23.3708 35.6751 19.4367C35.6751 19.0791 34.6916 19.0791 34.6916 19.4367C34.6916 23.639 31.0257 26.232 23.9622 26.232H16.5411V7.99206C16.5411 4.77325 18.1505 3.25326 21.7269 3.25326H24.4093C31.8304 3.25326 36.2116 6.47207 38.1786 13.4461C38.3575 13.8038 39.2516 13.625 39.2516 13.3567L39.0727 1.46503C39.0727 0.928567 38.8939 0.660336 38.1786 0.660336H0.268234C-0.0894113 0.660336 -0.0894113 1.73327 0.268234 1.73327C5.72232 1.73327 6.61644 2.80621 6.61644 7.90265V49.3001C6.61644 54.4859 5.72232 55.4695 0.268234 55.4695C-0.0894113 55.4695 -0.0894113 56.5424 0.268234 56.5424H39.788C40.861 56.5424 41.1292 56.1848 41.1292 55.2012C41.1292 51.1777 41.5763 45.9919 42.0233 42.5048C42.0233 42.2366 41.0398 41.9684 40.9504 42.326Z" fill="#C0AFA4"/>
<path d="M104.089 0.660336C101.138 0.660336 99.5291 0.928567 96.2209 0.928567C91.1244 0.928567 88.5315 0.660336 85.1338 0.660336C84.7762 0.660336 84.7762 1.73327 85.1338 1.73327C90.9456 1.73327 92.8232 6.20384 90.6774 12.0156L79.0539 42.6837L63.5857 9.69087C61.261 4.86267 63.1387 1.73327 68.2351 1.73327C68.5928 1.73327 68.5928 0.660336 68.2351 0.660336C65.3739 0.660336 61.5293 0.928567 51.6046 0.928567C47.134 0.928567 47.134 0.660336 45.0776 0.660336C44.7199 0.660336 44.7199 1.73327 45.0776 1.73327C47.8493 1.73327 49.8164 3.96855 51.8728 8.08147L74.6727 56.453C74.8516 56.9001 76.4609 56.9001 76.6398 56.453L93.1809 12.2838C95.595 5.84619 99.7079 1.73327 104.089 1.73327C104.447 1.73327 104.447 0.660336 104.089 0.660336Z" fill="#C0AFA4"/>
<path d="M155.356 55.4695C152.405 55.4695 150.081 52.7871 145.878 44.2931L123.526 0.302689C123.347 -0.144367 122.006 -0.054957 121.916 0.302689L102.514 42.9519C97.9539 53.0554 95.7186 55.4695 90.8904 55.4695C90.4434 55.4695 90.4434 56.5424 90.8904 56.5424C94.9139 56.5424 96.9704 56.1848 101.62 56.1848C106.18 56.1848 108.594 56.5424 112.17 56.5424C112.707 56.5424 112.707 55.4695 112.17 55.4695C105.464 55.4695 101.709 50.9989 104.928 43.846L111.276 29.8084H127.191L136.49 48.1377C139.441 53.9495 138.815 55.4695 133.897 55.4695C133.361 55.4695 133.361 56.5424 133.897 56.5424C137.563 56.5424 140.067 56.1848 144.18 56.1848C147.756 56.1848 151.78 56.5424 155.356 56.5424C155.892 56.5424 155.892 55.4695 155.356 55.4695ZM112.439 27.3049L118.787 13.1779L125.94 27.3049H112.439Z" fill="#C0AFA4"/>
</svg>
