<svg width="15" height="24" viewBox="0 0 15 24" fill="none" xmlns="http://www.w3.org/2000/svg">
<path d="M2.63509 23.3009C2.1617 23.3017 1.70293 23.1694 1.33842 22.9272C1.13326 22.7908 0.963675 22.6232 0.839372 22.4342C0.71507 22.2451 0.638492 22.0382 0.614026 21.8254C0.589559 21.6125 0.617685 21.3979 0.696791 21.1938C0.775898 20.9897 0.904429 20.8001 1.07503 20.6359L10.1518 11.9259L1.3992 3.19968C1.2309 3.03346 1.10522 2.8422 1.02938 2.6369C0.953544 2.4316 0.929041 2.2163 0.957283 2.00338C0.985525 1.79046 1.06595 1.58412 1.19395 1.39621C1.32194 1.2083 1.49498 1.04253 1.70311 0.908429C1.91274 0.760494 2.15822 0.64891 2.42417 0.580677C2.69011 0.512445 2.97078 0.489039 3.24853 0.511927C3.52629 0.534815 3.79515 0.603503 4.03825 0.713681C4.28134 0.823859 4.49341 0.973148 4.66115 1.15218L14.447 10.9022C14.745 11.1929 14.9079 11.5577 14.9079 11.9341C14.9079 12.3104 14.745 12.6752 14.447 12.9659L4.31672 22.7159C4.11347 22.9126 3.85529 23.068 3.56311 23.1697C3.27093 23.2713 2.953 23.3163 2.63509 23.3009Z" fill="#A57582" fill-opacity="0.3"/>
</svg>
