<svg width="68" height="68" viewBox="0 0 68 68" fill="none" xmlns="http://www.w3.org/2000/svg">
<path d="M22.7799 11.356C22.3185 11.0868 21.7943 10.9441 21.2602 10.9423C20.726 10.9404 20.2009 11.0796 19.7377 11.3457C19.2745 11.6117 18.8898 11.9953 18.6223 12.4576C18.3548 12.92 18.214 13.4447 18.2141 13.9789V54.0211C18.214 54.5553 18.3548 55.08 18.6223 55.5423C18.8898 56.0047 19.2745 56.3882 19.7377 56.6543C20.2009 56.9204 20.726 57.0595 21.2602 57.0577C21.7943 57.0559 22.3185 56.9132 22.7799 56.644L58.475 35.7826C58.7864 35.6007 59.0447 35.3404 59.2243 35.0277C59.4038 34.7149 59.4983 34.3606 59.4983 34C59.4983 33.6394 59.4038 33.285 59.2243 32.9723C59.0447 32.6595 58.7864 32.3993 58.475 32.2174L22.7823 11.356H22.7799ZM14.5713 13.9789C14.5713 8.82057 20.1667 5.61 24.6207 8.20857L60.3134 29.07C64.0826 31.2727 64.0826 36.72 60.3134 38.9251L24.6207 59.7866C20.1667 62.39 14.5713 59.177 14.5713 54.0211V13.9789Z" fill="white"/>
</svg>
