<svg width="26" height="26" viewBox="0 0 26 26" fill="none" xmlns="http://www.w3.org/2000/svg">
<g clip-path="url(#clip0)">
<path d="M10.2912 25.0563C8.46719 25.0563 6.74698 24.4744 5.31649 23.3733C5.04928 23.1678 4.79235 22.9431 4.55255 22.7063C2.88275 21.056 2.04247 18.8582 2.18684 16.5174C2.29597 14.7483 3.00852 13.0428 4.19432 11.715C5.76477 9.95666 7.92984 8.98816 10.2916 8.98816C10.6973 8.98816 11.107 9.0185 11.5102 9.0782L12.1366 9.17119V14.7302L11.1721 14.4116C10.8911 14.3186 10.599 14.2716 10.3034 14.2716C9.55657 14.2716 8.85724 14.5643 8.33408 15.0953C7.81336 15.6238 7.53294 16.3227 7.54371 17.0641C7.5579 18.0199 8.06149 18.8861 8.89051 19.3823C9.27224 19.6104 9.70682 19.744 10.1482 19.7685C10.4967 19.7875 10.8407 19.742 11.1716 19.6329C12.3025 19.2595 13.0626 18.2102 13.0626 17.0225L13.0675 11.2575V-0.000488281H18.3803L18.3867 0.726747C18.3896 1.05611 18.4234 1.38547 18.487 1.70455C18.7366 2.95935 19.4403 4.07761 20.4685 4.8528C21.3812 5.54137 22.4706 5.90499 23.6178 5.90499C23.6447 5.90499 23.6447 5.90499 23.8899 5.92212L24.5726 5.97008V10.4725V11.2066L24.3279 11.2061H23.8399C23.836 11.2061 23.8321 11.2061 23.8277 11.2061H23.5933C23.5923 11.2061 23.5908 11.2061 23.5894 11.2061C22.1745 11.2061 20.8488 10.9364 19.5348 10.3819C19.1433 10.2165 18.762 10.0276 18.394 9.81669L18.4106 17.0504C18.4018 19.19 17.5562 21.197 16.0297 22.7058C14.7911 23.9298 13.228 24.7118 11.5092 24.9663C11.1084 25.026 10.6988 25.0563 10.2912 25.0563ZM10.2912 10.4563C8.35365 10.4563 6.57716 11.2506 5.28909 12.6928C4.32205 13.7759 3.74065 15.1662 3.65158 16.6075C3.53413 18.5186 4.22026 20.3136 5.58419 21.6614C5.78141 21.8562 5.99234 22.0407 6.21159 22.2095C7.38319 23.1115 8.7941 23.5882 10.2912 23.5882C10.6269 23.5882 10.9641 23.5632 11.2944 23.5143C12.7024 23.3058 13.9831 22.6652 14.9981 21.6619C16.2451 20.4296 16.9356 18.7916 16.943 17.0494L16.92 6.94886L18.1057 7.86353C18.718 8.3358 19.3914 8.72829 20.1064 9.03024C21.0837 9.4428 22.0688 9.67183 23.1039 9.72616V7.35506C21.8246 7.25914 20.6163 6.80449 19.5842 6.02587C18.2677 5.03339 17.3668 3.60045 17.0467 1.99182C17.0124 1.81907 16.9846 1.64435 16.964 1.46817H14.5351V11.258L14.5303 17.023C14.5303 18.845 13.3655 20.4541 11.6316 21.0267C11.1261 21.1936 10.6 21.2631 10.0675 21.2342C9.3892 21.197 8.72167 20.9919 8.13636 20.642C6.86737 19.883 6.09658 18.5533 6.07505 17.0856C6.05841 15.9483 6.48858 14.8755 7.28727 14.0646C8.0884 13.2512 9.15919 12.8034 10.3024 12.8034C10.4248 12.8034 10.5461 12.8088 10.6675 12.8191V10.4666C10.5422 10.4598 10.4164 10.4563 10.2912 10.4563Z" fill="#FC165C"/>
</g>
<defs>
<clipPath id="clip0">
<rect width="25.0568" height="25.0568" fill="white" transform="translate(0.73877 -0.000488281)"/>
</clipPath>
</defs>
</svg>
