<svg width="109" height="109" viewBox="0 0 109 109" fill="none" xmlns="http://www.w3.org/2000/svg">
<g filter="url(#filter0_d)">
<circle cx="54.5" cy="54.5" r="22.5" fill="white"/>
</g>
<g clip-path="url(#clip0)">
<path d="M51.2257 66.4531C49.4343 66.4531 47.7449 65.8816 46.3399 64.8002C46.0775 64.5983 45.8251 64.3777 45.5896 64.145C43.9496 62.5243 43.1243 60.3657 43.2661 58.0667C43.3733 56.3292 44.0732 54.6541 45.2378 53.3501C46.7802 51.6231 48.9066 50.6719 51.2262 50.6719C51.6247 50.6719 52.027 50.7017 52.423 50.7603L53.0383 50.8516V56.3114L52.0909 55.9985C51.815 55.9071 51.5281 55.861 51.2378 55.861C50.5043 55.861 49.8174 56.1484 49.3036 56.6699C48.7922 57.189 48.5168 57.8754 48.5274 58.6036C48.5413 59.5423 49.0359 60.3931 49.8501 60.8804C50.225 61.1044 50.6518 61.2356 51.0854 61.2597C51.4276 61.2784 51.7655 61.2337 52.0904 61.1265C53.2012 60.7598 53.9477 59.7293 53.9477 58.5627L53.9525 52.9007V41.8438H59.1704L59.1767 42.558C59.1796 42.8815 59.2127 43.205 59.2752 43.5183C59.5203 44.7507 60.2115 45.849 61.2214 46.6104C62.1178 47.2867 63.1877 47.6438 64.3144 47.6438C64.3408 47.6438 64.3408 47.6438 64.5816 47.6606L65.2521 47.7077V52.1297V52.8507L65.0118 52.8502H64.5326C64.5287 52.8502 64.5249 52.8502 64.5206 52.8502H64.2903C64.2894 52.8502 64.2879 52.8502 64.2865 52.8502C62.8969 52.8502 61.5948 52.5854 60.3043 52.0408C59.9198 51.8783 59.5453 51.6928 59.1839 51.4856L59.2002 58.5901C59.1916 60.6916 58.361 62.6627 56.8619 64.1446C55.6453 65.3467 54.1101 66.1147 52.4221 66.3647C52.0284 66.4233 51.6261 66.4531 51.2257 66.4531ZM51.2257 52.1138C49.3228 52.1138 47.5781 52.8939 46.313 54.3104C45.3632 55.3741 44.7922 56.7396 44.7047 58.1552C44.5894 60.0321 45.2632 61.7951 46.6028 63.1188C46.7965 63.3101 47.0037 63.4913 47.219 63.6572C48.3697 64.543 49.7554 65.0112 51.2257 65.0112C51.5555 65.0112 51.8866 64.9867 52.2111 64.9386C53.5939 64.7338 54.8518 64.1047 55.8486 63.1193C57.0733 61.909 57.7515 60.3003 57.7588 58.5892L57.7362 48.669L58.9008 49.5673C59.5021 50.0312 60.1635 50.4167 60.8657 50.7132C61.8256 51.1184 62.7931 51.3434 63.8097 51.3967V49.0679C62.5533 48.9737 61.3665 48.5272 60.3528 47.7625C59.0599 46.7877 58.175 45.3804 57.8607 43.8005C57.827 43.6308 57.7996 43.4592 57.7794 43.2862H55.3939V52.9011L55.3891 58.5632C55.3891 60.3527 54.2452 61.9331 52.5422 62.4954C52.0457 62.6593 51.529 62.7276 51.0061 62.6992C50.3399 62.6627 49.6843 62.4613 49.1094 62.1176C47.8631 61.3722 47.1061 60.0662 47.0849 58.6247C47.0686 57.5077 47.4911 56.4541 48.2755 55.6577C49.0623 54.8588 50.114 54.419 51.2368 54.419C51.357 54.419 51.4762 54.4243 51.5954 54.4344V52.1239C51.4723 52.1172 51.3488 52.1138 51.2257 52.1138Z" fill="#FC165C"/>
</g>
<defs>
<filter id="filter0_d" x="0" y="0" width="109" height="109" filterUnits="userSpaceOnUse" color-interpolation-filters="sRGB">
<feFlood flood-opacity="0" result="BackgroundImageFix"/>
<feColorMatrix in="SourceAlpha" type="matrix" values="0 0 0 0 0 0 0 0 0 0 0 0 0 0 0 0 0 0 127 0"/>
<feOffset/>
<feGaussianBlur stdDeviation="16"/>
<feColorMatrix type="matrix" values="0 0 0 0 0.988235 0 0 0 0 0.0862745 0 0 0 0 0.360784 0 0 0 0.2 0"/>
<feBlend mode="normal" in2="BackgroundImageFix" result="effect1_dropShadow"/>
<feBlend mode="normal" in="SourceGraphic" in2="effect1_dropShadow" result="shape"/>
</filter>
<clipPath id="clip0">
<rect width="24.6094" height="24.6094" fill="white" transform="translate(41.8438 41.8438)"/>
</clipPath>
</defs>
</svg>
