<svg width="26" height="27" viewBox="0 0 26 27" fill="none" xmlns="http://www.w3.org/2000/svg">
<g clip-path="url(#clip0)">
<path d="M15.2936 1.68018H10.5209C5.52202 1.68018 1.45508 5.74616 1.45508 10.7441V15.0434C1.45508 18.7653 3.74217 22.1103 7.18115 23.4727V26.2598C7.18115 26.4488 7.29233 26.6196 7.46507 26.696C7.5271 26.7236 7.59295 26.737 7.65832 26.737C7.77428 26.737 7.88928 26.6945 7.97851 26.6134L10.7456 24.1073H15.2936C20.2924 24.1073 24.3594 20.0413 24.3594 15.0434V10.7441C24.3594 5.74616 20.2924 1.68018 15.2936 1.68018ZM23.405 15.0434C23.405 19.515 19.7666 23.1529 15.2936 23.1529H10.5614C10.4431 23.1529 10.3291 23.1968 10.2413 23.2765L8.1355 25.1838V23.142C8.1355 22.9396 8.00809 22.7593 7.81722 22.6925C4.58295 21.5487 2.40942 18.4747 2.40942 15.0434V10.7441C2.40942 6.27249 6.04834 2.63452 10.5209 2.63452H15.2936C19.7666 2.63452 23.405 6.27249 23.405 10.7441V15.0434Z" fill="#FC165C"/>
<path d="M19.2138 16.2307L16.2811 14.3258C15.9604 14.1173 15.5787 14.0467 15.205 14.124C14.8309 14.2027 14.5093 14.4236 14.3008 14.7457L14.1629 14.9576C12.8936 14.5382 11.4941 14.0023 10.6562 11.5768L11.0031 11.2753C11.5986 10.7575 11.6611 9.85185 11.1433 9.25538L8.8491 6.61614C8.67636 6.41716 8.37479 6.39664 8.17581 6.5689L6.73522 7.821C5.47167 8.91945 6.06193 10.5442 6.25614 11.0782C6.26473 11.102 6.27523 11.1249 6.28764 11.1474C6.33774 11.2371 7.53401 13.372 9.46608 15.3398C11.4058 17.3158 14.9078 19.1405 15.0151 19.1935C15.415 19.453 15.865 19.5776 16.3102 19.5776C17.0918 19.5776 17.8581 19.1944 18.3153 18.492L19.3545 16.8916C19.4977 16.6697 19.4347 16.3743 19.2138 16.2307ZM17.5146 17.9719C17.0846 18.6342 16.1961 18.8222 15.4947 18.3699C15.4599 18.3517 11.9808 16.5399 10.147 14.6718C8.433 12.9258 7.29495 10.9861 7.13987 10.7155C6.76195 9.65573 6.82875 9.00439 7.36127 8.54153L8.44207 7.60246L10.4233 9.88143C10.5994 10.0838 10.5789 10.3796 10.3775 10.5547L9.79199 11.0634C9.64932 11.1875 9.59301 11.3836 9.64884 11.5639C10.6471 14.8078 12.5882 15.4448 14.0054 15.91L14.212 15.9783C14.4187 16.0479 14.6448 15.9683 14.7632 15.786L15.1015 15.2649C15.1712 15.1571 15.278 15.084 15.4021 15.0578C15.5267 15.0311 15.6536 15.0559 15.7614 15.126L18.2943 16.7709L17.5146 17.9719Z" fill="#FC165C"/>
<path d="M13.9963 9.43275C13.7424 9.35974 13.4786 9.50719 13.4065 9.76105C13.3344 10.0144 13.4814 10.2783 13.7348 10.3504C14.4458 10.5527 15.0122 11.12 15.2126 11.8315C15.2718 12.0415 15.4631 12.1794 15.6716 12.1794C15.7146 12.1794 15.758 12.1736 15.8014 12.1617C16.0548 12.0901 16.2027 11.8267 16.1312 11.5729C15.8415 10.545 15.0232 9.72478 13.9963 9.43275Z" fill="#FC165C"/>
<path d="M17.6282 12.2823C17.6712 12.2823 17.7146 12.2765 17.758 12.2646C18.0119 12.193 18.1593 11.9292 18.0878 11.6758C17.5247 9.67976 15.9362 8.08791 13.9416 7.52008C13.6882 7.44707 13.4244 7.59547 13.3523 7.84885C13.2802 8.10223 13.4272 8.36611 13.6806 8.43816C15.3588 8.91533 16.6954 10.2557 17.1692 11.9349C17.2288 12.1448 17.4197 12.2823 17.6282 12.2823Z" fill="#FC165C"/>
<path d="M13.7355 5.29798C13.4817 5.22497 13.2178 5.37242 13.1458 5.62675C13.0737 5.88013 13.2207 6.14401 13.4741 6.21606C16.3175 7.02487 18.5827 9.29526 19.3853 12.1406C19.4444 12.3506 19.6358 12.4885 19.8443 12.4885C19.8873 12.4885 19.9307 12.4828 19.9741 12.4708C20.2275 12.3993 20.3754 12.1354 20.3038 11.882C19.412 8.71979 16.8954 6.19745 13.7355 5.29798Z" fill="#FC165C"/>
</g>
<defs>
<clipPath id="clip0">
<rect width="25.0568" height="25.0568" fill="white" transform="translate(0.0229492 0.964355)"/>
</clipPath>
</defs>
</svg>
