<svg width="97" height="97" viewBox="0 0 97 97" fill="none" xmlns="http://www.w3.org/2000/svg">
<g filter="url(#filter0_d)">
<circle cx="48.5" cy="48.5" r="16.5" fill="white"/>
</g>
<path d="M48.5 41C44.3646 41 41 44.3646 41 48.5C41 52.6354 44.3646 56 48.5 56C52.6354 56 56 52.6354 56 48.5C56 44.3646 52.6354 41 48.5 41ZM48.5 55.3478C44.7239 55.3478 41.6522 52.2761 41.6522 48.5C41.6522 44.7239 44.7239 41.6522 48.5 41.6522C52.2761 41.6522 55.3478 44.7239 55.3478 48.5C55.3478 52.2761 52.2761 55.3478 48.5 55.3478Z" fill="#FC165C"/>
<path d="M51.6656 51.2046L48.826 48.365V43.2826C48.826 43.1026 48.6799 42.9565 48.4999 42.9565C48.3199 42.9565 48.1738 43.1026 48.1738 43.2826V48.5C48.1738 48.5868 48.2084 48.6696 48.2691 48.7309L51.2038 51.6657C51.2678 51.7289 51.3512 51.7609 51.4347 51.7609C51.5182 51.7609 51.6016 51.729 51.6656 51.6657C51.7927 51.5385 51.7927 51.3318 51.6656 51.2046Z" fill="#FC165C"/>
<defs>
<filter id="filter0_d" x="0" y="0" width="97" height="97" filterUnits="userSpaceOnUse" color-interpolation-filters="sRGB">
<feFlood flood-opacity="0" result="BackgroundImageFix"/>
<feColorMatrix in="SourceAlpha" type="matrix" values="0 0 0 0 0 0 0 0 0 0 0 0 0 0 0 0 0 0 127 0"/>
<feOffset/>
<feGaussianBlur stdDeviation="16"/>
<feColorMatrix type="matrix" values="0 0 0 0 0.988235 0 0 0 0 0.0862745 0 0 0 0 0.360784 0 0 0 0.2 0"/>
<feBlend mode="normal" in2="BackgroundImageFix" result="effect1_dropShadow"/>
<feBlend mode="normal" in="SourceGraphic" in2="effect1_dropShadow" result="shape"/>
</filter>
</defs>
</svg>
