<svg width="109" height="109" viewBox="0 0 109 109" fill="none" xmlns="http://www.w3.org/2000/svg">
<g filter="url(#filter0_d)">
<circle cx="54.5" cy="54.5" r="22.5" fill="white"/>
</g>
<g clip-path="url(#clip0)">
<path d="M49.5317 56.1346H52.1137V65.6831C52.1137 66.1076 52.4572 66.4521 52.8827 66.4521L56.9915 66.4531C57.417 66.4531 57.7605 66.1076 57.7605 65.6841V56.1356H60.2081C60.5957 56.1356 60.9228 55.8465 60.971 55.462L61.4816 51.3604C61.5391 50.9031 61.1812 50.496 60.7187 50.496H57.7605C57.8764 47.9623 57.3145 47.2127 58.9623 47.2127C60.0779 47.0794 61.8374 47.6444 61.8374 46.4437V42.7758C61.8374 42.3913 61.5534 42.0663 61.173 42.014C60.851 41.9699 59.5785 41.8438 58.0004 41.8438C50.8125 41.8438 52.2921 49.8131 52.1147 50.495H49.5317C49.1072 50.495 48.7627 50.8395 48.7627 51.264V55.3656C48.7627 55.7901 49.1072 56.1346 49.5317 56.1346ZM50.3008 52.0341H52.8827C53.3072 52.0341 53.6518 51.6896 53.6518 51.265V48.034C53.6518 45.0778 55.236 43.3829 57.9994 43.3829C58.8997 43.3829 59.7282 43.427 60.2983 43.4721V45.6756C59.8861 45.8858 56.2214 44.7692 56.2214 48.4411V51.2661C56.2214 51.6906 56.5659 52.0351 56.9904 52.0351H59.8472L59.5272 54.5986H56.9904C56.5659 54.5986 56.2214 54.9431 56.2214 55.3676V64.915H53.6528V55.3666C53.6528 54.9421 53.3083 54.5976 52.8837 54.5976H50.3008V52.0341Z" fill="#FC165C"/>
</g>
<defs>
<filter id="filter0_d" x="0" y="0" width="109" height="109" filterUnits="userSpaceOnUse" color-interpolation-filters="sRGB">
<feFlood flood-opacity="0" result="BackgroundImageFix"/>
<feColorMatrix in="SourceAlpha" type="matrix" values="0 0 0 0 0 0 0 0 0 0 0 0 0 0 0 0 0 0 127 0"/>
<feOffset/>
<feGaussianBlur stdDeviation="16"/>
<feColorMatrix type="matrix" values="0 0 0 0 0.988235 0 0 0 0 0.0862745 0 0 0 0 0.360784 0 0 0 0.2 0"/>
<feBlend mode="normal" in2="BackgroundImageFix" result="effect1_dropShadow"/>
<feBlend mode="normal" in="SourceGraphic" in2="effect1_dropShadow" result="shape"/>
</filter>
<clipPath id="clip0">
<rect width="24.6094" height="24.6094" fill="white" transform="translate(42.5469 41.8438)"/>
</clipPath>
</defs>
</svg>
