<svg width="109" height="109" viewBox="0 0 109 109" fill="none" xmlns="http://www.w3.org/2000/svg">
<g filter="url(#filter0_d)">
<circle cx="54.5" cy="54.5" r="22.5" fill="white"/>
</g>
<g clip-path="url(#clip0)">
<path d="M46.7144 66.4531H61.5825C64.268 66.4531 66.4531 64.268 66.4531 61.5825V46.7144C66.4531 44.0289 64.268 41.8438 61.5825 41.8438H46.7144C44.0289 41.8438 41.8438 44.0289 41.8438 46.7144V61.5825C41.8438 64.268 44.0289 66.4531 46.7144 66.4531ZM43.3818 46.7144C43.3818 44.8769 44.8769 43.3818 46.7144 43.3818H61.5825C63.42 43.3818 64.915 44.8769 64.915 46.7144V61.5825C64.915 63.42 63.42 64.915 61.5825 64.915H46.7144C44.8769 64.915 43.3818 63.42 43.3818 61.5825V46.7144Z" fill="#FC165C"/>
<path d="M54.1484 60.4341C57.6143 60.4341 60.4341 57.6143 60.4341 54.1484C60.4341 50.6826 57.6143 47.8628 54.1484 47.8628C50.6826 47.8628 47.8628 50.6826 47.8628 54.1484C47.8628 57.6143 50.6826 60.4341 54.1484 60.4341ZM54.1484 49.4009C56.7663 49.4009 58.896 51.5306 58.896 54.1484C58.896 56.7663 56.7663 58.896 54.1484 58.896C51.5306 58.896 49.4009 56.7663 49.4009 54.1484C49.4009 51.5306 51.5306 49.4009 54.1484 49.4009Z" fill="#FC165C"/>
<path d="M60.6679 49.3924C61.6789 49.3924 62.4408 48.6336 62.4408 47.6277C62.4408 46.5788 61.6389 45.863 60.6689 45.863C59.6579 45.863 58.896 46.6218 58.896 47.6277C58.896 48.6747 59.6938 49.3924 60.6679 49.3924ZM60.8494 47.4585C61.1734 47.7446 60.4341 48.0922 60.4341 47.6288C60.4341 47.3519 60.8104 47.4237 60.8494 47.4585Z" fill="#FC165C"/>
</g>
<defs>
<filter id="filter0_d" x="0" y="0" width="109" height="109" filterUnits="userSpaceOnUse" color-interpolation-filters="sRGB">
<feFlood flood-opacity="0" result="BackgroundImageFix"/>
<feColorMatrix in="SourceAlpha" type="matrix" values="0 0 0 0 0 0 0 0 0 0 0 0 0 0 0 0 0 0 127 0"/>
<feOffset/>
<feGaussianBlur stdDeviation="16"/>
<feColorMatrix type="matrix" values="0 0 0 0 0.988235 0 0 0 0 0.0862745 0 0 0 0 0.360784 0 0 0 0.2 0"/>
<feBlend mode="normal" in2="BackgroundImageFix" result="effect1_dropShadow"/>
<feBlend mode="normal" in="SourceGraphic" in2="effect1_dropShadow" result="shape"/>
</filter>
<clipPath id="clip0">
<rect width="24.6094" height="24.6094" fill="white" transform="translate(41.8438 41.8438)"/>
</clipPath>
</defs>
</svg>
