<svg width="26" height="26" viewBox="0 0 26 26" fill="none" xmlns="http://www.w3.org/2000/svg">
<g clip-path="url(#clip0)">
<path d="M13.4488 0.680176C6.54037 0.680176 0.92041 6.30013 0.92041 13.2086C0.92041 15.5654 1.57526 17.8533 2.8175 19.84C2.32263 21.5737 1.42877 24.8533 1.41914 24.8875C1.37288 25.0571 1.42251 25.2383 1.54924 25.3602C1.67597 25.4821 1.85908 25.5255 2.0258 25.4744L6.99187 23.9469C8.93715 25.1188 11.1648 25.737 13.4488 25.737C20.3573 25.737 25.9772 20.117 25.9772 13.2086C25.9772 6.30013 20.3573 0.680176 13.4488 0.680176ZM13.4488 24.7733C11.2713 24.7733 9.15013 24.1647 7.31424 23.014C7.23666 22.9653 7.14751 22.9407 7.05837 22.9407C7.01066 22.9407 6.96296 22.948 6.9167 22.962L2.58042 24.2967C2.89894 23.134 3.47139 21.0543 3.80339 19.8973C3.84194 19.7634 3.82026 19.6188 3.7446 19.5017C2.52742 17.6287 1.88413 15.4526 1.88413 13.2086C1.88413 6.83211 7.07234 1.6439 13.4488 1.6439C19.8253 1.6439 25.0135 6.83211 25.0135 13.2086C25.0135 19.5851 19.8253 24.7733 13.4488 24.7733Z" fill="#FC165C"/>
<path d="M21.6334 16.1604C20.7439 15.6665 19.9864 15.1712 19.4337 14.8098C19.0116 14.5341 18.7066 14.3351 18.483 14.2229C17.858 13.9111 17.3844 14.1313 17.2042 14.3135C17.1815 14.3361 17.1613 14.3607 17.1439 14.3867C16.4949 15.3605 15.6473 16.292 15.3991 16.3421C15.1124 16.2973 13.7704 15.5345 12.4366 14.4238C11.0749 13.289 10.2181 12.2024 10.0924 11.4623C10.966 10.5631 11.2806 9.99742 11.2806 9.35365C11.2806 8.69012 9.73289 5.9199 9.45293 5.63994C9.17201 5.3595 8.53932 5.31565 7.57222 5.50839C7.47923 5.52718 7.39345 5.57296 7.32599 5.63994C7.2089 5.75703 4.46903 8.55038 5.77102 11.9359C7.20023 15.6516 10.8686 19.9705 15.5456 20.6721C16.0771 20.7516 16.5753 20.7911 17.0418 20.7911C19.7932 20.7911 21.4171 19.4067 21.8744 16.6606C21.9086 16.4597 21.8117 16.2592 21.6334 16.1604ZM15.6887 19.719C10.7429 18.9774 7.62764 14.0773 6.67066 11.59C5.72139 9.12284 7.472 6.92314 7.91146 6.42586C8.269 6.36514 8.64533 6.3396 8.80242 6.36418C9.13057 6.8205 10.2668 8.9672 10.3169 9.35365C10.3169 9.60663 10.2345 9.95887 9.25344 10.9404C9.16285 11.0305 9.11226 11.1529 9.11226 11.2811C9.11226 13.8041 14.4339 17.3044 15.3765 17.3044C16.1961 17.3044 17.2649 15.9267 17.8735 15.029C17.9086 15.0305 17.9679 15.0425 18.0522 15.0849C18.2257 15.1721 18.5264 15.3682 18.9066 15.6169C19.4087 15.945 20.0756 16.3806 20.8629 16.8321C20.5054 18.5524 19.506 20.2924 15.6887 19.719Z" fill="#FC165C"/>
</g>
<defs>
<clipPath id="clip0">
<rect width="25.0568" height="25.0568" fill="white" transform="translate(0.92041 0.680176)"/>
</clipPath>
</defs>
</svg>
